<svg width="534" height="663" viewBox="0 0 534 663" fill="none" xmlns="http://www.w3.org/2000/svg">
<path d="M303.63 0C311.113 0 318.596 0 326.072 0C326.337 0.0861917 326.596 0.218794 326.867 0.251945C327.357 0.311616 327.854 0.318246 328.344 0.351397C331.655 0.543671 334.966 0.716054 338.27 0.928219C340.032 1.04093 341.787 1.19342 343.542 1.3857C346.555 1.72383 349.561 2.12164 352.574 2.46641C356.706 2.93715 360.812 3.61342 364.905 4.356C370.52 5.37704 376.096 6.59698 381.632 8.01583C393.406 11.0325 404.849 14.9642 415.928 19.9766C443.542 32.4744 466.58 50.747 484.99 74.8675C492.764 85.058 499.459 95.9248 505.22 107.368C513.253 123.32 519.279 140.022 523.795 157.287C525.371 163.3 526.736 169.36 527.921 175.453C528.623 179.053 529.199 182.68 529.802 186.307C530.146 188.395 530.457 190.49 530.742 192.592C531.119 195.317 531.49 198.049 531.815 200.787C532.046 202.749 532.192 204.725 532.404 206.694C532.742 209.857 533.04 213.02 533.199 216.195C533.225 216.686 533.278 217.183 533.305 217.674C533.391 219.152 533.497 220.638 533.543 222.116C533.623 224.874 533.682 227.626 533.709 230.384C533.715 231.093 533.861 231.77 534 232.452C534 239.242 534 246.024 534 252.814C533.967 253.516 533.715 254.179 533.709 254.895C533.689 257.72 533.583 260.551 533.563 263.375C533.536 266.77 533.152 270.145 532.987 273.533C532.907 275.157 532.755 276.775 532.603 278.393C532.397 280.574 532.159 282.749 531.927 284.93C531.603 288.02 531.311 291.116 530.927 294.199C530.417 298.263 529.874 302.327 529.245 306.372C528.457 311.397 527.616 316.41 526.696 321.409C525.338 328.768 523.782 336.095 522.04 343.375C518.736 357.185 514.842 370.823 510.299 384.276C502.598 407.07 493.201 429.129 481.91 450.378C473.745 465.74 464.653 480.532 454.508 494.668C441.045 513.438 425.841 530.696 409.206 546.694C391.042 564.171 371.48 579.911 350.634 594.053C325.973 610.788 299.975 625.056 272.473 636.533C249.11 646.279 225.085 653.877 200.153 658.452C194.809 659.433 189.458 660.308 184.061 660.945C182.658 661.11 181.26 661.283 179.856 661.442C177.823 661.667 175.797 661.946 173.757 662.078C170.519 662.297 167.288 662.642 164.043 662.675C163.692 662.682 163.334 662.695 162.99 662.748C162.718 662.794 162.453 662.914 162.189 663C156.262 663 150.328 663 144.402 663C143.912 662.642 143.329 662.688 142.773 662.669C138.965 662.536 135.177 662.191 131.389 661.807C128.654 661.528 125.926 661.183 123.211 660.766C118.41 660.023 113.635 659.088 108.907 657.948C99.7753 655.74 90.9016 652.77 82.3459 648.871C69.3335 642.951 57.5726 635.153 47.1891 625.288C37.7593 616.33 29.8193 606.2 23.1707 595.034C15.8003 582.656 10.2643 569.482 6.40358 555.605C4.96658 550.434 3.7746 545.209 2.88062 539.918C2.40382 537.061 1.96677 534.203 1.62242 531.332C1.20522 527.825 0.874118 524.311 0.748298 520.777C0.715187 519.928 0.615856 519.086 0.549635 518.244C0.50328 517.667 0.284751 517.15 0 516.66C0 514.538 0 512.416 0 510.295C0.304617 510.069 0.443681 509.738 0.483414 509.386C0.59599 508.332 0.701943 507.278 0.768164 506.217C0.860874 504.805 0.874118 503.393 0.999938 501.981C1.18536 499.939 1.45024 497.91 1.65553 495.868C1.98001 492.632 2.50978 489.423 3.11239 486.234C4.57587 478.45 6.59562 470.812 9.14513 463.314C13.3899 450.829 18.9591 438.961 25.6342 427.604C33.8588 413.601 43.5602 400.685 54.4205 388.638C65.1814 376.698 76.9224 365.804 89.4779 355.78C102.795 345.138 116.867 335.604 131.575 327.005C140.899 321.555 150.448 316.523 160.176 311.842C160.745 311.57 161.321 311.291 161.871 310.98C162.043 310.887 162.195 310.701 162.275 310.516C162.407 310.191 162.493 309.846 162.559 309.495C162.99 307.134 163.407 304.767 163.831 302.407C164.97 296.009 166.268 289.644 167.619 283.292C169.996 272.101 172.685 260.982 175.757 249.963C178.698 239.414 182.009 228.985 185.922 218.761C189.008 210.706 192.452 202.816 196.537 195.218C199.789 189.171 203.405 183.363 207.689 177.986C210.735 174.16 214.086 170.64 217.894 167.557C222.609 163.731 227.847 160.88 233.668 159.15C238.144 157.817 242.72 157.021 247.402 156.856C251.713 156.703 256.011 156.849 260.282 157.486C264.752 158.155 269.136 159.196 273.447 160.562C281.075 162.975 288.32 166.27 295.293 170.169C297.286 171.283 297.253 171.031 295.982 173.126C295.909 173.245 295.829 173.365 295.757 173.484C281.843 196.259 269.977 220.047 260.236 244.904C255.825 256.149 251.865 267.552 248.402 279.122C248.302 279.453 248.243 279.805 248.17 280.143C248.13 280.329 248.349 280.614 248.501 280.587C248.985 280.501 249.475 280.428 249.958 280.315C254.567 279.274 259.156 278.18 263.778 277.193C267.705 276.351 271.659 275.608 275.605 274.859C278.307 274.348 281.022 273.917 283.724 273.413C286.293 272.929 288.883 272.585 291.485 272.406C295.353 272.134 299.233 272.001 303.12 272.2C307.709 272.439 312.246 273.002 316.742 273.937C323.967 275.436 330.86 277.869 337.403 281.277C346.475 286.011 354.309 292.263 360.64 300.352C368.057 309.839 372.354 320.587 373.414 332.587C373.864 337.666 373.719 342.765 372.99 347.823C372.374 352.093 371.434 356.29 370.143 360.414C368.686 365.075 366.878 369.59 364.64 373.933C364.348 374.496 364.05 375.06 363.739 375.617C363.474 376.094 363.156 376.227 362.693 376.081C362.156 375.909 361.627 375.71 361.084 375.551C357.574 374.496 354.071 373.409 350.548 372.408C344.237 370.611 337.847 369.139 331.41 367.886C328.019 367.23 324.609 366.653 321.199 366.123C318.623 365.718 316.02 365.479 313.438 365.108C309.875 364.598 306.286 364.326 302.696 364.047C299.107 363.769 295.511 363.63 291.916 363.524C288.883 363.431 285.843 363.49 282.81 363.457C278.009 363.404 273.221 363.769 268.427 364.008C268.142 364.021 267.864 364.047 267.586 364.074C265.407 364.286 263.229 364.485 261.057 364.724C258.183 365.042 255.302 365.334 252.441 365.745C249.302 366.195 246.177 366.759 243.045 367.276C239.356 367.886 235.707 368.675 232.052 369.451C231.502 369.57 231.158 369.829 231.092 370.406C231.019 371.035 230.919 371.665 230.873 372.302C230.727 374.205 230.562 376.108 230.463 378.01C230.257 381.962 230.085 385.92 229.9 389.872C229.867 390.581 229.873 391.284 229.833 391.993C229.522 397.43 229.535 402.873 229.542 408.317C229.549 412.56 229.615 416.797 229.8 421.04C229.966 424.852 230.032 428.671 230.31 432.477C230.529 435.507 230.694 438.544 230.886 441.573C230.9 441.786 230.926 441.998 230.946 442.203C231.164 444.597 231.383 446.99 231.608 449.384C231.794 451.353 231.959 453.329 232.184 455.291C232.522 458.242 232.906 461.179 233.284 464.123C233.608 466.642 233.899 469.175 234.29 471.688C234.906 475.666 235.581 479.637 236.244 483.608C237.184 489.251 238.296 494.86 239.502 500.456C239.694 501.351 239.906 502.246 240.078 503.148C240.25 504.082 240.217 504.367 239.356 504.905C233.707 508.412 227.867 511.535 221.682 513.975C216.616 515.977 211.411 517.475 205.967 518.065C202.723 518.417 199.498 518.423 196.259 517.986C191.935 517.402 187.909 515.997 184.141 513.809C180.38 511.621 177.161 508.783 174.347 505.475C171.585 502.233 169.301 498.672 167.327 494.906C165.294 491.021 163.626 486.977 162.195 482.833C159.493 474.996 157.699 466.94 156.335 458.779C155.434 453.408 154.785 448.011 154.282 442.595C153.911 438.583 153.62 434.565 153.414 430.541C153.189 426.165 153.03 421.783 152.984 417.4C152.924 412.096 153.017 406.798 153.043 401.494C153.043 401.143 153.05 400.785 153.043 400.434C153.037 400.049 152.64 399.83 152.289 400.022C151.792 400.288 151.302 400.566 150.812 400.845C143.514 405.015 136.422 409.504 129.568 414.37C119.529 421.497 110.079 429.328 101.451 438.132C95.0074 444.703 89.1137 451.737 83.9882 459.389C79.2136 466.516 75.1874 474.035 72.2472 482.103C69.1017 490.736 67.2342 499.607 67.2475 508.83C67.2475 511.018 67.2607 513.219 67.4528 515.4C67.7375 518.708 68.2474 521.984 68.9626 525.239C71.4327 536.497 75.9688 546.84 82.6041 556.248C86.7893 562.176 91.7095 567.4 97.4443 571.856C105.027 577.75 113.562 581.668 122.814 584.082C126.707 585.096 130.654 585.832 134.647 586.316C138.508 586.787 142.369 587.065 146.256 587.118C153.183 587.218 160.076 586.813 166.943 585.885C170.089 585.461 173.228 584.99 176.34 584.4C183.479 583.041 190.518 581.284 197.478 579.182C208.908 575.734 220.006 571.438 230.866 566.485C246.303 559.437 261.057 551.163 275.248 541.867C294.439 529.303 312.332 515.102 328.986 499.322C345.078 484.079 359.746 467.577 372.844 449.682C387.85 429.195 400.32 407.276 410.014 383.779C421.451 356.038 429.41 327.33 434.178 297.713C434.986 292.687 435.735 287.662 436.291 282.603C436.456 281.131 436.642 279.659 436.801 278.18C437.026 276.072 437.271 273.964 437.45 271.855C437.668 269.323 437.827 266.783 438.019 264.244C438.403 259.238 438.675 254.226 438.754 249.207C438.787 247.012 438.807 244.824 438.82 242.63C438.88 233.009 438.529 223.409 437.576 213.828C437.218 210.242 436.801 206.668 436.317 203.094C435.735 198.751 434.986 194.442 434.152 190.139C432.622 182.296 430.629 174.578 428.113 166.993C425.146 158.056 421.464 149.43 416.828 141.228C412.425 133.445 407.266 126.224 401.134 119.707C390.876 108.814 378.698 100.871 364.613 95.8452C355.726 92.676 346.548 90.8328 337.178 89.9643C332.893 89.5665 328.589 89.3676 324.278 89.4339C321.172 89.4803 318.073 89.5333 314.974 89.7521C312.438 89.9311 309.908 90.13 307.385 90.3952C304.723 90.6737 302.074 91.1179 299.419 91.4826C294.525 92.1588 289.691 93.1401 284.876 94.254C275.182 96.5016 265.672 99.3791 256.335 102.82C235.323 110.564 215.523 120.695 196.842 133.034C186.935 139.584 177.472 146.725 168.579 154.608C153.534 167.935 140.455 182.985 129.244 199.666C119.238 214.551 110.98 230.357 104.285 246.992C104.073 247.516 103.861 248.04 103.643 248.557C103.517 248.849 103.252 248.995 102.974 248.988C101.914 248.968 100.855 248.975 99.8084 248.849C96.0934 248.411 92.4115 247.781 88.7958 246.8C81.7234 244.871 75.1145 241.947 69.1017 237.723C59.5261 231 52.6789 222.109 48.3281 211.282C45.3217 203.797 43.792 196.007 43.6132 187.938C43.5072 183.191 43.7854 178.47 44.5866 173.789C45.4343 168.836 46.7256 163.996 48.5334 159.302C48.8645 158.447 49.2685 157.618 49.7121 156.816C52.4206 151.936 55.2946 147.156 58.3076 142.455C68.903 125.939 80.9089 110.518 94.2392 96.1303C108.007 81.2655 122.999 67.7732 139.336 55.7926C162.314 38.9454 187.18 25.6719 214.106 16.3035C224.238 12.7829 234.535 9.85238 245.011 7.53183C248.865 6.67654 252.733 5.89419 256.62 5.18476C259.6 4.64109 262.6 4.19687 265.599 3.74603C267.897 3.39463 270.208 3.08964 272.513 2.78466C274.473 2.52608 276.433 2.2874 278.393 2.0686C280.214 1.86307 282.042 1.69731 283.87 1.5183C286.188 1.29951 288.499 1.0343 290.823 0.881808C294.346 0.643123 297.869 0.484 301.392 0.291726C301.882 0.265205 302.379 0.258575 302.869 0.192274C303.1 0.212164 303.365 0.0861917 303.63 0Z" fill="#FAFAF9"/>
</svg>
