<svg width="1130" height="1206" viewBox="0 0 1130 1206" fill="none" xmlns="http://www.w3.org/2000/svg">
<g clip-path="url(#clip0_95_33)">
<path d="M0 528.07C0 477.42 0 426.76 0 376.1C14.46 366.42 29.04 356.92 43.35 347.03C70.17 328.49 97.67 310.98 124.46 292.4C150.69 274.22 177.57 256.96 204.01 239.08C231.14 220.73 258.6 202.89 285.59 184.32C311.76 166.31 338.54 149.2 364.74 131.23C390.94 113.26 417.49 95.82 443.89 78.15C481.68 52.86 519.48 27.57 557.27 2.27C561.7 -0.700004 568.06 -0.790004 572.36 2.19C580.06 7.53 587.84 12.76 595.58 18.02C633.19 43.59 671.06 68.76 708.78 94.16C726.98 106.42 745.28 118.52 763.41 130.9C801.08 156.64 839.27 181.62 877.05 207.22C896.16 220.17 915.56 232.67 934.46 245.95C952.78 258.83 971.85 270.64 990.29 283.34C1008.24 295.7 1026.56 307.5 1044.47 319.94C1068.83 336.85 1093.83 352.83 1118.38 369.48C1122.43 372.23 1127.69 373.88 1129.75 379.1V529.08H1123.66C1103.17 529.08 1082.67 529.26 1062.18 528.95C1057.43 528.88 1056.67 530.37 1056.68 534.69C1056.79 680.49 1056.74 826.29 1056.91 972.1C1056.91 977.33 1055.45 978.14 1050.67 978.12C844.31 977.35 637.94 978.88 431.58 977.19C314.95 976.23 198.31 977.02 81.68 977.01C76.56 977.01 74 974.51 74 969.51C74 824.04 73.98 678.57 74.1 533.1C74.1 528.96 73.16 527.93 68.99 527.98C46 528.21 23 528.09 0.01 528.09L0 528.07ZM565.87 824.02C687.17 824.02 808.47 824 929.77 824.12C933.89 824.12 934.9 823.21 934.9 819.03C934.77 695.39 934.78 571.75 934.86 448.11C934.86 445.08 934.23 443.07 931.57 441.31C900.79 420.94 869.94 400.66 839.38 379.96C777.54 338.07 714.87 297.44 653.23 255.26C624.76 235.78 595.81 216.99 567.14 197.81C564.8 196.25 562.98 196.1 560.69 197.77C550.12 205.48 539.06 212.48 528.28 219.89C502.91 237.32 476.94 253.89 451.53 271.25C427.54 287.64 403.1 303.36 379.24 319.94C355.02 336.77 330.19 352.71 305.68 369.13C270.84 392.48 236.09 415.96 201.18 439.21C198.04 441.3 196.89 443.36 196.89 447.08C196.99 570.89 197 694.7 196.86 818.5C196.86 823.02 197.95 824.12 202.47 824.12C323.6 823.98 444.74 824.01 565.87 824.01V824.02Z" fill="#010101"/>
<path d="M532.31 1158.68C549.64 1170.02 556.35 1188.01 567.77 1203.96C562.08 1203.96 557.37 1203.82 552.68 1204.03C550.66 1204.12 550.68 1202.49 550.09 1201.59C543.94 1192.34 538.75 1182.49 532.13 1173.5C525.51 1164.51 518.08 1158.65 505.87 1159.76C494.95 1160.75 494.88 1159.97 494.88 1170.97C494.88 1180.8 494.78 1190.63 494.95 1200.45C495 1203.27 494.2 1204.02 491.38 1204.04C481.89 1204.08 481.89 1204.21 481.89 1194.95C481.89 1166.46 481.97 1137.98 481.79 1109.49C481.77 1105.77 482.64 1104.8 486.39 1104.88C499.71 1105.14 513.04 1104.89 526.37 1105.01C533.88 1105.08 541.74 1106.28 548.04 1109.52C554.87 1113.04 559.06 1120.39 559.88 1128.76C560.6 1136.14 559.28 1142.96 554.89 1149.12C552.1 1153.03 547.77 1154.93 543.82 1156.67C540.71 1158.04 537.22 1160.11 532.31 1158.68ZM514.17 1148.97C519.77 1148.54 526.48 1149.14 533.27 1148.18C539.58 1147.29 543.09 1143.37 545.38 1138.69C548.15 1133.04 547.83 1126.97 542.58 1122.17C538.35 1118.31 533.26 1116.24 527.7 1116.06C517.89 1115.75 508.06 1116.04 498.23 1115.93C495.78 1115.9 494.75 1116.36 494.81 1119.15C495 1127.97 495.02 1136.8 494.81 1145.62C494.73 1148.7 495.94 1149.12 498.55 1149.03C503.37 1148.85 508.2 1148.98 514.17 1148.98V1148.97Z" fill="#010101"/>
<path d="M775.83 1126.62C775.83 1151.34 775.71 1175.15 775.94 1198.96C775.98 1203.13 774.97 1204.73 770.81 1203.99C769.68 1203.79 768.46 1203.82 767.32 1203.99C764.45 1204.4 763.74 1203.22 763.77 1200.43C763.91 1186.27 763.83 1172.1 763.83 1157.94C763.83 1141.61 763.93 1125.28 763.75 1108.95C763.71 1105.62 764.76 1105.15 767.86 1104.82C774.1 1104.16 777.79 1106.35 781.28 1111.68C796.63 1135.13 812.49 1158.25 828.82 1182.46V1177.49C828.82 1154.99 828.94 1132.5 828.71 1110.01C828.67 1105.89 829.6 1104.19 833.81 1104.95C834.94 1105.15 836.16 1105.12 837.3 1104.95C840.12 1104.55 840.92 1105.64 840.88 1108.48C840.73 1121.14 840.81 1133.81 840.81 1146.47C840.81 1164.3 840.72 1182.13 840.89 1199.96C840.92 1203.23 839.95 1203.76 836.81 1204.12C829.8 1204.93 826.03 1202.17 822.22 1196.22C807.36 1173.04 791.74 1150.36 775.82 1126.62H775.83Z" fill="#010101"/>
<path d="M127.16 1204.87C114.03 1206.4 102.62 1202.43 94.2199 1192.47C83.2599 1179.48 78.2599 1164.6 80.6599 1147.02C82.1099 1136.47 85.6499 1127.39 92.0199 1119.3C96.8699 1113.14 103.09 1108.88 110.98 1106.81C116 1105.5 120.74 1103.95 126.11 1103.85C149.49 1103.39 168.58 1118.54 172.92 1141.81C176.21 1159.5 173.97 1176.32 162.46 1190.7C157.7 1196.64 150.45 1199.75 143.54 1203.05C138.16 1205.62 132.63 1204.72 127.16 1204.88V1204.87ZM128.28 1193.84C137.81 1196.24 144.56 1189.77 151.58 1183.88C154.17 1181.7 155.74 1178.9 156.94 1175.85C161.15 1165.13 162.12 1154.08 159.96 1142.78C157.48 1129.8 148.46 1119.54 133.36 1115.86C123.73 1113.51 115.65 1116.02 107.88 1121.47C101.8 1125.73 97.8599 1131.05 95.7999 1138.39C93.7299 1145.73 94.1999 1153.02 93.9799 1160.38C93.4799 1177.2 108.7 1196.52 128.29 1193.84H128.28Z" fill="#010101"/>
<path d="M417.09 1204.68C403.47 1206.94 392.73 1201.17 383.73 1192.09C375.76 1184.04 372.62 1173.38 370.98 1162.43C369.37 1151.72 370.53 1141.16 374.94 1131.23C380.2 1119.4 388.39 1111.04 401.29 1106.71C411.43 1103.31 421.05 1103.2 430.87 1106.03C446.95 1110.67 457.35 1121.11 461.94 1137.41C465.85 1151.29 465.34 1164.84 459.89 1178.16C456.25 1187.06 450.85 1194.37 442.03 1199.05C434.1 1203.26 426.13 1206.42 417.09 1204.68ZM383.79 1152.93C384.08 1159.32 383.63 1163.72 384.86 1168.11C388.33 1180.51 395.43 1189.54 407.99 1193.47C412.29 1194.81 416.9 1193.65 421.35 1193.97C431.03 1194.67 437.34 1188.82 442.95 1182.34C447.79 1176.74 449.65 1169.84 450.41 1162.3C451.35 1153.02 451.24 1143.98 447.6 1135.45C442.9 1124.41 433.99 1118.78 422.42 1115.55C410.7 1112.28 391.81 1122.5 388.2 1132.19C385.47 1139.53 382.77 1146.84 383.79 1152.92V1152.93Z" fill="#010101"/>
<path d="M282.94 1154.29C282.94 1139.31 283.04 1124.34 282.86 1109.36C282.82 1106.07 283.35 1104.8 287.06 1104.87C299.7 1105.13 312.36 1104.62 324.99 1105.09C334.06 1105.42 343.25 1106.9 350.02 1113.73C356.4 1120.17 358.81 1128.45 357.61 1137.39C357.1 1141.23 356.06 1144.98 354.17 1148.72C350.13 1156.7 343.93 1160.01 335.58 1162.2C323.74 1165.3 311.93 1163.3 300.14 1163.83C296.63 1163.99 295.76 1164.79 295.84 1168.25C296.08 1178.89 295.8 1189.55 296.01 1200.19C296.07 1203.27 295.29 1204.07 292.18 1204.04C282.93 1203.95 282.93 1204.11 282.93 1194.72C282.93 1181.24 282.93 1167.76 282.93 1154.29H282.94ZM312.4 1151.97C318.03 1151.97 322.53 1151.97 327.03 1151.97C336.92 1151.97 343.93 1144.98 343.93 1135.14C343.93 1133.64 344.06 1132.13 343.91 1130.64C343.43 1125.92 341.44 1122.1 336.97 1119.98C329.44 1116.41 321.37 1116.92 313.37 1116.98C307.73 1117.02 300.06 1114.97 297 1117.82C293.53 1121.05 296.09 1128.78 295.98 1134.55C295.88 1140.18 293.95 1147.82 296.8 1150.92C300.05 1154.45 307.77 1151.49 312.4 1151.96V1151.97Z" fill="#010101"/>
<path d="M190.96 1154.21C190.96 1139.06 191.05 1123.9 190.88 1108.75C190.85 1105.68 191.58 1104.85 194.7 1104.9C207.52 1105.09 220.35 1104.66 233.16 1105.09C242.08 1105.39 251.09 1106.96 257.79 1113.53C262.25 1117.91 265.67 1123.09 266.07 1130.03C266.7 1140.81 263.71 1149.83 256.07 1157.54C253.94 1159.69 251.46 1159.55 249.1 1160.42C242.64 1162.8 236.12 1164.3 229.15 1164.04C221.83 1163.76 214.5 1164.1 207.17 1163.91C204.48 1163.84 203.86 1164.71 203.89 1167.27C204.02 1178.26 203.81 1189.25 204.03 1200.24C204.09 1203.39 203.2 1204.08 200.16 1204.05C190.95 1203.97 190.94 1204.12 190.94 1194.68C190.94 1181.19 190.94 1167.7 190.94 1154.21H190.96ZM222.99 1151.97C229.34 1150.92 236.94 1153.47 244.5 1149.31C253.24 1144.51 253.54 1138.74 252.83 1131.39C252.13 1124.2 246.34 1119.2 239.19 1117.92C228.32 1115.99 217.4 1117.54 206.52 1116.94C204.08 1116.8 203.91 1118 203.92 1119.92C203.98 1129.57 204.08 1139.22 203.87 1148.87C203.81 1151.79 205.02 1152.07 207.36 1152.01C212.18 1151.88 217.01 1151.97 222.99 1151.97Z" fill="#010101"/>
<path d="M677.85 1140.98C677.85 1150.97 677.85 1160.96 677.85 1170.95C677.85 1180.78 682.49 1188.42 691.05 1192.17C696.11 1194.38 702.53 1194.88 708.43 1193.65C711.85 1192.93 715.38 1192.65 718.55 1190.75C726.25 1186.12 728.7 1178.79 728.78 1170.54C728.97 1150.23 728.93 1129.91 728.76 1109.6C728.73 1106.09 729.26 1104.72 733.24 1104.87C741.83 1105.2 741.84 1104.94 741.84 1113.39C741.84 1131.71 742.23 1150.04 741.66 1168.33C741.41 1176.41 740.86 1184.88 735.83 1191.94C729.99 1200.12 721.65 1204.33 711.91 1204.8C704.39 1205.17 696.8 1205.56 689.2 1204.09C680.93 1202.49 675.14 1198.04 670.87 1191.1C666.67 1184.29 665.12 1176.63 664.98 1168.91C664.62 1148.93 664.94 1128.95 664.78 1108.97C664.75 1105.67 665.66 1104.85 668.89 1104.9C677.86 1105.04 677.86 1104.88 677.86 1114.01V1140.99L677.85 1140.98Z" fill="#010101"/>
<path d="M230.2 1077.56C234.33 1079.69 238.32 1082.15 242.62 1083.83C245.46 1084.94 244.62 1086.47 243.57 1087.68C242.29 1089.16 243 1093.41 238.95 1091.5C235.78 1090 232.09 1089.03 229.61 1086.75C225.06 1082.56 220.82 1082.94 215.49 1084.94C203.73 1089.35 192.26 1087.8 181.29 1081.83C169.1 1075.2 164.67 1063.97 162.97 1051.13C161.51 1040.15 163.08 1029.45 168.15 1019.75C173.48 1009.55 182.54 1003.55 193.84 1000.99C207.77 997.83 219.84 1001.9 230.25 1010.96C237.88 1017.6 241.53 1027.02 242.65 1036.57C244.1 1048.92 242.71 1061.31 234.92 1071.94C233.47 1073.92 231.76 1075.7 230.19 1077.56H230.2ZM202.84 1071.26C205.66 1069.39 203.17 1063.57 208.23 1064.1C211.53 1064.44 214.68 1065.92 217.44 1067.98C218.6 1068.85 219.8 1069.67 220.99 1070.51C221.75 1071.05 222.34 1071.22 222.95 1070.19C225.07 1066.65 227.81 1063.7 229.2 1059.45C231.51 1052.43 230.85 1045.47 230.87 1038.48C230.9 1030.96 227.88 1024.36 223.09 1018.68C213.42 1007.18 187.48 1006.54 179.24 1022.75C172.03 1036.93 172.41 1050.42 178.13 1064.25C182.61 1075.09 202.81 1082.51 213.7 1075.12C209.93 1074.17 206.88 1071.86 202.83 1071.24L202.84 1071.26Z" fill="#010101"/>
<path d="M903.8 1019.22C903.8 1040.85 903.6 1061.15 903.94 1081.44C904.02 1086.42 901.64 1086.08 898.32 1086.03C895.11 1085.98 892.59 1086.57 892.65 1081.49C892.97 1056.17 892.88 1030.84 892.7 1005.52C892.67 1001.83 893.5 1000.89 897.27 1000.83C902.24 1000.76 905.27 1001.85 908.22 1006.53C921.17 1027.08 934.79 1047.21 948.78 1068.41V1063.48C948.78 1043.99 948.97 1024.49 948.65 1005.01C948.56 999.85 951.52 1001.01 954.28 1001.01C957.04 1001.01 959.96 999.85 959.91 1005.01C959.63 1030.66 959.72 1056.32 959.86 1081.98C959.88 1085.24 958.9 1085.71 955.8 1086.16C949.56 1087.07 946 1084.47 942.84 1079.52C930.21 1059.73 917.34 1040.09 903.8 1019.22Z" fill="#010101"/>
<path d="M1035.8 1042.99C1040.8 1042.99 1045.8 1043.12 1050.79 1042.93C1053.25 1042.84 1053.85 1043.68 1053.82 1046.03C1053.69 1054.69 1053.67 1063.36 1053.84 1072.02C1053.88 1074.02 1052.86 1074.71 1051.59 1075.77C1039.07 1086.26 1024.14 1088.91 1008.84 1086.69C995.17 1084.7 984.62 1077.08 979.36 1063.24C973.77 1048.54 974.54 1034.54 981.57 1020.53C987.48 1008.74 997.16 1002.83 1009.75 1001.02C1021.15 999.38 1031.75 1001.3 1041.5 1007.9C1047.31 1011.83 1049.82 1017.54 1051.7 1023.8C1052.06 1025 1051.8 1026.01 1050.03 1026.06C1048.62 1026.1 1047.14 1026.48 1045.83 1027.04C1042.56 1028.43 1041.03 1027.69 1040.17 1024C1038.16 1015.4 1031.21 1011.93 1023.57 1010.44C1009 1007.6 994.58 1014.43 989.52 1028.86C985.48 1040.39 985.42 1051.85 991.29 1063.23C995.81 1071.99 1002.99 1076.07 1012.1 1076.88C1021.92 1077.76 1031.69 1077.3 1040.19 1071C1041.89 1069.74 1042.99 1068.83 1042.83 1066.51C1042.54 1062.21 1044.23 1056.61 1042.1 1053.94C1039.87 1051.14 1034.02 1053.25 1029.76 1053.03C1027.43 1052.91 1025.06 1052.74 1022.77 1053.07C1018.57 1053.68 1017.61 1052.12 1017.59 1047.99C1017.57 1043.79 1018.67 1042.54 1022.81 1042.92C1027.1 1043.32 1031.47 1043.01 1035.8 1043.01V1042.99Z" fill="#010101"/>
<path d="M640.72 1087.1C628.88 1088.3 618.87 1082.07 610.61 1073C605.11 1066.96 602.71 1059.04 601.92 1050.9C600.87 1040.16 602.24 1029.65 607.38 1020.08C613.68 1008.35 624.22 1003.11 637.07 1000.85C649.33 998.69 659.13 1003.16 668.51 1009.97C675.87 1015.31 679.3 1022.92 680.85 1031.58C681.05 1032.7 681.12 1033.84 681.33 1034.95C683.85 1048.19 681.9 1060.27 673.93 1071.65C665.96 1083.03 655.23 1087.27 640.72 1087.1ZM644.6 1077.98C652.81 1076.8 662.4 1073.65 667.08 1062.35C670.79 1053.39 671.73 1044.25 669.87 1034.74C667.61 1023.11 661.37 1014.48 649.17 1011.07C636.6 1007.56 621.73 1013.37 616.91 1026.02C613.79 1034.22 612.59 1042.56 613.63 1051.61C615.37 1066.67 626.74 1077.98 644.59 1077.98H644.6Z" fill="#010101"/>
<path d="M87.98 1042.98C87.98 1030.32 88.1 1017.66 87.9 1005C87.85 1001.74 88.71 1000.88 91.98 1000.91C109.63 1001.08 127.29 1001.19 144.94 1000.86C149.57 1000.77 148.99 1003.15 148.98 1005.99C148.98 1008.81 149.61 1011.26 144.95 1011.13C130.97 1010.76 116.97 1011.1 102.98 1010.92C99.73 1010.88 98.74 1011.72 98.89 1015C99.16 1021.15 99.12 1027.33 98.9 1033.48C98.8 1036.32 99.66 1037.08 102.48 1037.05C115.64 1036.9 128.8 1037.23 141.95 1036.85C146.61 1036.71 145.98 1039.17 145.98 1041.99C145.98 1044.82 146.58 1047.26 141.94 1047.12C128.96 1046.73 115.96 1047.1 102.97 1046.9C99.69 1046.85 98.78 1047.74 98.89 1051C99.14 1058.15 99.1 1065.33 98.9 1072.48C98.82 1075.33 99.69 1076.06 102.49 1076.04C117.31 1075.9 132.14 1076.2 146.96 1075.84C151.63 1075.73 150.97 1078.18 150.98 1080.99C151 1083.84 151.55 1086.19 146.93 1086.11C128.61 1085.78 110.29 1085.89 91.97 1086.06C88.68 1086.09 87.85 1085.2 87.9 1081.96C88.09 1068.97 87.98 1055.98 87.98 1042.98Z" fill="#010101"/>
<path d="M585.87 1043.49C585.87 1056.32 585.6 1069.15 586 1081.96C586.16 1087.13 583.14 1085.97 580.38 1085.96C577.63 1085.96 574.54 1087.16 574.75 1081.97C575.17 1071.16 574.78 1060.32 574.94 1049.5C574.98 1046.68 574.2 1045.89 571.37 1045.92C559.38 1046.08 547.39 1046.07 535.4 1045.92C532.58 1045.88 531.78 1046.66 531.82 1049.49C531.98 1060.31 531.75 1071.14 531.97 1081.97C532.03 1085.23 531.16 1086.14 527.89 1086.07C519.9 1085.9 519.9 1086.07 519.9 1077.97C519.9 1053.98 520.01 1030 519.79 1006.02C519.75 1001.89 520.71 1000.22 524.9 1000.97C526.03 1001.17 527.25 1001.14 528.39 1000.97C531.22 1000.57 532.02 1001.67 531.97 1004.5C531.79 1013.82 532.01 1023.16 531.84 1032.48C531.79 1035.31 532.59 1036.09 535.42 1036.05C547.41 1035.9 559.4 1035.89 571.39 1036.05C574.22 1036.09 575.02 1035.3 574.96 1032.48C574.78 1023.32 575.04 1014.16 574.81 1005C574.73 1001.73 575.63 1000.46 578.9 1000.97C580.04 1001.15 581.25 1001.14 582.39 1000.97C585.24 1000.56 585.98 1001.71 585.95 1004.51C585.8 1017.5 585.89 1030.49 585.89 1043.48L585.87 1043.49Z" fill="#010101"/>
<path d="M777.97 1059.16C779.02 1059.1 780.01 1059.08 780.99 1058.98C785.81 1058.47 789.28 1058.77 790.68 1065.06C792.33 1072.43 799.18 1075.99 805.91 1076.66C813 1077.37 820.48 1078.49 827.55 1074.22C831.57 1071.79 833.93 1068.66 834.64 1064.71C835.54 1059.71 832.19 1055.89 828.35 1053.3C823.95 1050.33 818.65 1049.24 813.51 1047.96C805.32 1045.93 797.09 1044.27 789.72 1039.55C779.86 1033.24 779.18 1017.48 786.44 1009.96C795.47 1000.63 807.01 999.05 819.11 1001.21C824.37 1002.15 829.49 1003.88 834.07 1007.43C839.06 1011.29 841.28 1016.29 842.77 1021.91C843.56 1024.88 842.4 1026.57 838.94 1026.03C837.31 1025.78 835.61 1025.95 833.95 1026C832.64 1026.04 832.04 1025.79 831.76 1024.17C829.57 1011.36 816.35 1009.06 807.25 1010.4C803.47 1010.96 799.47 1011.85 796.29 1014.88C793.19 1017.84 791.13 1021.39 792.13 1025.18C793.32 1029.71 797.08 1033.1 801.82 1033.84C810.76 1035.24 819.16 1038.63 828.06 1040.21C835.5 1041.53 844.53 1052.33 844.83 1058.84C845.4 1071.49 839.95 1081.67 830 1084.79C819.86 1087.97 809.4 1087.83 798.99 1085.61C786.99 1083.05 781.39 1074.67 778.86 1063.51C778.54 1062.12 778.3 1060.71 777.99 1059.16H777.97Z" fill="#010101"/>
<path d="M269.94 1031.95C269.94 1039.78 270.15 1047.61 269.86 1055.43C269.68 1060.32 271.03 1064.73 272.99 1068.98C275.41 1074.24 279.85 1076.92 285.58 1076.93C290.69 1076.93 295.98 1078.01 300.89 1076.4C308.58 1073.88 312.91 1066.5 312.93 1056.96C312.97 1039.81 313.07 1022.66 312.84 1005.51C312.79 1001.79 313.68 1000.36 317.44 1000.95C319.06 1001.21 320.77 1001.1 322.43 1000.97C324.39 1000.81 324.98 1001.56 324.97 1003.51C324.91 1019.66 325.51 1035.85 324.63 1051.95C324.31 1057.73 324.26 1063.75 322.27 1069.7C319.34 1078.47 308.15 1087.38 298.73 1086.96C292.16 1086.67 285.58 1087.72 279.02 1086.04C270.98 1083.98 265.23 1079.67 261.9 1071.86C258.41 1063.67 258.27 1055.05 258.05 1046.5C257.71 1033.02 258.14 1019.52 257.85 1006.04C257.76 1001.95 258.68 1000.64 262.93 1000.88C269.94 1001.28 269.96 1000.98 269.96 1007.96C269.96 1015.95 269.96 1023.95 269.96 1031.94L269.94 1031.95Z" fill="#010101"/>
<path d="M412.63 1085.73C404.077 1086.32 398.513 1082.76 395.94 1075.04C394.57 1070.94 393.31 1066.8 391.83 1062.74C391.24 1061.12 390.42 1059.85 388.01 1059.9C378.03 1060.11 368.04 1060.12 358.06 1059.9C355.47 1059.84 354.61 1061.03 353.95 1062.99C351.85 1069.21 349.59 1075.38 347.72 1081.67C346.72 1085.03 345.09 1086.55 341.47 1086.04C339.19 1085.72 336.82 1085.98 334.2 1085.98C342.55 1063.66 350.85 1041.53 359.12 1019.38C360.8 1014.88 362.3 1010.32 363.97 1005.82C365.15 1002.65 366.77 1000.94 370.91 1000.74C376.95 1000.44 379.51 1002.4 381.69 1008.07C391.67 1034.06 402.25 1059.82 412.64 1085.72L412.63 1085.73ZM358.15 1050.93H386.69C381.37 1038.17 376.91 1025.24 372.45 1011.16C367.39 1025.24 362.79 1038.02 358.15 1050.93Z" fill="#010101"/>
<path d="M762.83 1033.23C762.83 1042.06 762.88 1050.88 762.82 1059.71C762.75 1070.92 757.43 1078.98 747.86 1084.52C744.95 1086.21 741.62 1086.79 738.58 1086.81C731.86 1086.85 725.14 1087.61 718.36 1086.1C709 1084.02 701.05 1076.82 698.83 1067.42C697.4 1061.34 696.71 1055.25 696.79 1048.98C696.97 1034.33 697.09 1019.66 696.72 1005.02C696.59 999.86 699.58 1001 702.34 1001.01C705.08 1001.02 708.13 999.8 707.98 1005C707.59 1018.65 708.05 1032.31 707.76 1045.96C707.64 1051.78 708.68 1057.45 709.06 1063.19C709.45 1069.04 716.81 1077.76 724.73 1077C729.8 1076.52 734.96 1077.77 739.99 1076.32C748.79 1073.78 751.31 1066.51 751.67 1056.71C752.31 1039.58 752.11 1022.4 751.69 1005.26C751.56 999.73 754.68 1001.12 757.59 1000.98C760.65 1000.84 763.25 1000.31 762.98 1005.26C762.48 1014.56 762.84 1023.9 762.84 1033.23H762.83Z" fill="#010101"/>
<path d="M1065.02 1104.98C1059.73 1112.8 1054.83 1120.1 1049.87 1127.36C1042.6 1138.01 1035.36 1148.68 1027.93 1159.21C1026.31 1161.51 1025.72 1163.77 1025.74 1166.48C1025.82 1177.8 1025.68 1189.11 1025.84 1200.43C1025.88 1203.22 1025.15 1204.02 1022.3 1204.04C1012.78 1204.08 1012.78 1204.21 1012.78 1194.49C1012.78 1185.67 1012.49 1176.84 1012.9 1168.03C1013.11 1163.37 1011.21 1159.99 1008.8 1156.43C997.87 1140.29 987.05 1124.08 976.22 1107.87C975.71 1107.11 975.5 1106.14 975.14 1105.24C975.6 1105.12 975.88 1104.98 976.17 1104.98C991.63 1104.88 991.76 1104.81 1000.76 1121.08C1006.61 1131.65 1015.06 1140.54 1019.84 1152.07C1028.75 1136.67 1038.89 1122.68 1048.02 1108.04C1049.62 1105.47 1051.23 1104.82 1053.89 1104.93C1057.33 1105.08 1060.79 1104.97 1065.04 1104.97L1065.02 1104.98Z" fill="#010101"/>
<path d="M618.86 1160.47C618.86 1173.63 618.75 1186.79 618.94 1199.95C618.99 1203.19 618.15 1204.11 614.86 1204.06C605.86 1203.92 605.86 1204.08 605.86 1194.97C605.86 1170.48 605.77 1146 605.96 1121.51C605.99 1117.8 605.15 1116.73 601.37 1116.89C593.22 1117.22 585.05 1116.83 576.89 1117.07C573.64 1117.17 572.71 1116.28 572.78 1112.99C572.95 1104.99 572.78 1104.99 580.87 1104.99C602.69 1104.99 624.51 1105.09 646.33 1104.89C650.04 1104.86 651.51 1105.71 650.89 1109.49C650.65 1110.95 650.71 1112.5 650.89 1113.98C651.17 1116.39 650.25 1117.08 647.85 1117.04C639.36 1116.9 630.86 1117.11 622.37 1116.92C619.53 1116.86 618.77 1117.69 618.8 1120.5C618.95 1133.82 618.86 1147.15 618.86 1160.48V1160.47Z" fill="#010101"/>
<path d="M938.79 1160.58C938.79 1173.57 938.68 1186.57 938.87 1199.56C938.92 1202.84 938.41 1204.16 934.68 1204.06C925.81 1203.82 925.8 1204.04 925.8 1195.33C925.8 1170.84 925.67 1146.36 925.92 1121.87C925.96 1117.52 924.68 1116.69 920.69 1116.87C913.04 1117.2 905.37 1116.85 897.71 1117.03C894.88 1117.09 893.65 1116.7 893.71 1113.35C893.84 1104.97 893.63 1104.97 901.94 1104.97C923.59 1104.97 945.25 1105.11 966.9 1104.85C971.26 1104.8 972.48 1106.12 971.83 1110.09C971.64 1111.23 971.65 1112.44 971.83 1113.58C972.29 1116.6 970.83 1117.08 968.18 1117.03C960.02 1116.88 951.84 1117.28 943.7 1116.85C939.29 1116.62 938.63 1118.16 938.71 1122.1C938.97 1134.92 938.81 1147.75 938.81 1160.58H938.79Z" fill="#010101"/>
<path d="M420.91 1043.04C420.91 1030.38 421.01 1017.72 420.84 1005.06C420.8 1001.91 421.47 1000.39 424.86 1000.97C425.83 1001.14 426.87 1001.12 427.85 1000.97C431.02 1000.49 432.02 1001.59 431.99 1004.95C431.82 1024.27 431.85 1043.6 431.95 1062.92C431.97 1067.18 430.05 1072.85 432.81 1075.3C435.17 1077.39 440.71 1075.95 444.85 1075.97C453.34 1076.01 461.85 1076.26 470.33 1075.87C475 1075.65 473.93 1078.49 473.86 1080.93C473.8 1083.26 475.16 1086.17 470.43 1086.09C455.11 1085.81 439.78 1085.86 424.46 1086.09C421.02 1086.14 420.83 1084.75 420.85 1082.03C420.96 1069.04 420.9 1056.04 420.9 1043.05L420.91 1043.04Z" fill="#010101"/>
<path d="M877.81 1154.96C877.81 1169.95 877.71 1184.95 877.89 1199.94C877.93 1203.17 877.12 1204.11 873.82 1204.05C864.82 1203.9 864.81 1204.07 864.81 1194.96C864.81 1166.47 864.89 1137.99 864.72 1109.5C864.7 1105.8 865.52 1104.74 869.31 1104.87C877.81 1105.16 877.82 1104.93 877.82 1113.47C877.82 1127.3 877.82 1141.12 877.82 1154.95L877.81 1154.96Z" fill="#010101"/>
<path d="M873.81 1043.76C873.81 1056.59 873.7 1069.42 873.89 1082.24C873.94 1085.37 873.09 1086.11 870.03 1086.06C861.81 1085.95 861.81 1086.11 861.81 1077.69C861.81 1053.7 861.91 1029.71 861.71 1005.73C861.68 1001.79 862.71 1000.73 866.59 1000.9C873.8 1001.21 873.81 1000.98 873.81 1008.28V1043.76Z" fill="#010101"/>
<path d="M565.37 754.04C502.22 754.04 439.07 753.99 375.93 754.15C371.77 754.16 370.81 753.18 370.82 749.03C370.98 698.71 370.98 648.39 370.82 598.07C370.81 593.89 371.82 592.97 375.95 592.97C502.58 593.09 629.21 593.09 755.84 592.97C760 592.97 760.96 593.94 760.95 598.09C760.79 648.41 760.79 698.73 760.95 749.05C760.96 753.23 759.95 754.16 755.82 754.15C692.34 754 628.86 754.05 565.38 754.05L565.37 754.04Z" fill="#010101"/>
<path d="M564.77 568.07C501.47 568.07 438.17 568.02 374.87 568.18C370.61 568.19 369.81 567.06 369.82 563.01C369.97 512.7 369.98 462.39 369.82 412.08C369.81 407.88 370.86 407 374.96 407C501.23 407.12 627.49 407.12 753.76 407C757.78 407 759.02 407.73 758.94 412.03C758.06 460.76 760.45 509.48 759.85 558.22C759.73 568.07 759.83 568.07 750.17 568.07H564.77Z" fill="#010101"/>
</g>
<defs>
<clipPath id="clip0_95_33">
<rect width="1129.75" height="1205.19" fill="white"/>
</clipPath>
</defs>
</svg>
