<svg width="2162" height="3041" viewBox="0 0 2162 3041" fill="none" xmlns="http://www.w3.org/2000/svg">
<g clip-path="url(#clip0_95_14)">
<path d="M148.47 3040.69C147.31 3036.92 146.45 3033.03 144.95 3029.4C98.16 2915.82 51.32 2802.27 4.49 2688.71C3.13 2685.4 1.9 2682.04 0.35 2678.04C3.93 2676.13 6.77 2674.54 9.67 2673.07C80.82 2636.99 126.33 2580.58 143.87 2502.49C147.06 2488.3 147.75 2473.53 149.1 2458.98C149.78 2451.7 149.39 2444.33 149.39 2436.99C149.39 1870.38 149.36 1303.76 149.51 737.15C149.51 707.31 147.32 677.96 138.01 649.45C116.2 582.67 73.39 533.99 10.94 502.28C7.71 500.64 4.49 498.99 0 496.7C49.8 372.15 99.42 248.05 149.27 123.37C153.5 123.37 157.11 123.37 160.73 123.37C288.38 123.46 416.04 123.42 543.69 123.65C778.99 124.08 1014.3 124.82 1249.6 125C1283.2 125.02 1316.89 123.64 1350.4 121.03C1415.06 116 1477.22 101.21 1534.37 69.1C1565.05 51.87 1592.84 30.77 1618.63 6.92C1620.83 4.89 1623.09 2.92 1625.38 1C1625.85 0.61 1626.6 0.55 1628.23 0C1629.27 2.51 1630.48 5.04 1631.38 7.68C1688.56 175.32 1789.69 310.65 1932.32 414.98C1994.41 460.4 2062.67 493.82 2137.24 513.74C2139.47 514.33 2141.62 515.23 2144.59 516.25C2143.56 518.81 2142.89 521.29 2141.66 523.45C2093.23 608.5 2061.71 699.62 2044.41 795.75C2038.28 829.81 2034.31 864.16 2031.48 898.69C2028.43 935.94 2027.84 973.19 2027.69 1010.51C2027.3 1105.99 2043.66 1198.59 2074.89 1288.69C2096.11 1349.92 2123.71 1408.23 2155.65 1464.54C2157.59 1467.96 2159.31 1471.5 2161.58 1475.84C2158.3 1476.9 2155.9 1477.79 2153.44 1478.44C2068.65 1500.87 1987.86 1533.02 1912.52 1578.24C1830.45 1627.5 1759.03 1688.66 1702.87 1766.75C1672.74 1808.64 1648.67 1853.75 1631.62 1902.52C1630.75 1905.01 1629.73 1907.44 1628.31 1911.12C1625.71 1909 1623.44 1907.39 1621.44 1905.5C1582.21 1868.42 1539.4 1836.46 1490.26 1813.49C1449.54 1794.46 1406.79 1782.52 1362.4 1775.94C1322.43 1770.02 1282.24 1768.24 1241.9 1768.24C1022.59 1768.24 803.28 1768.13 583.96 1768.05C579.38 1768.05 574.8 1768.05 569.2 1768.05C568.8 1773.77 568.21 1778.3 568.21 1782.83C568.15 1858.49 568.17 1934.15 568.17 2009.81C568.17 2155.13 568.05 2300.45 568.24 2445.77C568.31 2502.05 584.22 2553.43 618.01 2598.82C641.31 2630.12 670.55 2654.37 705.58 2671.6C709.43 2673.49 713.24 2675.47 717.58 2677.67C716.77 2680.5 716.29 2683.04 715.33 2685.37C666.4 2803.82 617.42 2922.25 568.45 3040.69H148.47ZM572.46 1397.35H587.53C865.84 1397.35 1144.16 1397.39 1422.47 1397.27C1444.1 1397.27 1465.75 1396.44 1487.36 1395.33C1514.1 1393.95 1540.14 1388.53 1565.26 1379.19C1618.49 1359.39 1652.82 1322.43 1666.15 1266.81C1671.3 1245.33 1672.87 1223.46 1672.86 1201.4C1672.8 1035.08 1672.86 868.76 1672.76 702.43C1672.76 690.13 1672.17 677.79 1671.15 665.53C1668.2 630.22 1656.42 598.03 1635.56 569.36C1606.04 528.78 1565.59 504.71 1517.66 492.09C1491.35 485.16 1464.54 483.67 1437.46 483.69C1237.81 483.83 1038.15 483.76 838.5 483.76C753.84 483.76 669.18 483.76 584.52 483.79C580.32 483.79 576.12 484.18 572.26 484.38C569.58 494.32 569.61 1386.99 572.47 1397.35H572.46Z" fill="#111111"/>
</g>
<defs>
<clipPath id="clip0_95_14">
<rect width="2161.59" height="3040.69" fill="white"/>
</clipPath>
</defs>
</svg>
