<svg width="1628" height="299" viewBox="0 0 1628 299" fill="none" xmlns="http://www.w3.org/2000/svg">
<path d="M938 115.91C930.45 125.76 922.89 135.6 915.35 145.45C900.57 164.76 885.81 184.09 871.02 203.39C867.53 207.95 866.72 207.92 863.29 203.45C842.18 175.98 821.07 148.5 799.96 121.03C798.88 119.62 797.74 118.26 795.58 115.58V122.14C795.58 179.13 795.53 236.11 795.68 293.1C795.69 297.34 794.9 298.79 790.29 298.71C771.97 298.41 753.63 298.48 735.31 298.68C731.5 298.72 730.63 297.61 730.64 293.91C730.76 240.76 730.73 187.6 730.69 134.45C730.69 132.05 731.15 129.93 732.29 127.79C753.8 87.2 775.24 46.57 796.71 5.96001C799.27 1.11001 799.33 1.10001 802.45 5.51001C823.23 34.88 844.03 64.23 864.71 93.66C866.94 96.83 867.92 97.73 870.63 93.81C891.06 64.2 911.78 34.8 932.3 5.25001C934.02 2.77001 935.8 1.87001 938.8 1.89001C959.13 2.02001 979.46 2.08001 999.78 1.85001C1003.68 1.81001 1004.37 3.00001 1004.36 6.60001C1004.26 102.24 1004.26 197.88 1004.38 293.53C1004.38 297.76 1003.18 298.74 999.1 298.69C980.77 298.47 962.44 298.45 944.12 298.69C939.82 298.75 938.98 297.35 938.98 293.34C939.11 236.02 939.07 178.7 939.07 121.38V116.42C938.7 116.25 938.34 116.07 937.97 115.9L938 115.91Z" fill="#DC2430"/>
<path d="M237.81 298.59C227.01 298.59 217.07 298.59 207.12 298.59C193.29 298.59 179.46 298.54 165.63 298.64C162.92 298.66 161.16 298.14 159.62 295.49C142.35 265.85 124.84 236.36 107.62 206.7C105.5 203.04 103.27 201.65 99.04 201.82C89.89 202.18 80.71 202.11 71.55 201.84C67.82 201.73 66.78 202.76 66.8 206.54C66.96 235.54 66.83 264.53 66.96 293.53C66.98 297.18 66.42 298.75 62.18 298.7C43.02 298.45 23.85 298.49 4.69 298.68C0.92 298.71 0 297.7 0 293.95C0.11 198.13 0.09 102.3 0.07 6.48001C0.07 3.88001 -0.31 1.84001 3.71 1.86001C44.7 2.06001 85.71 1.57001 126.69 2.25001C151.26 2.65001 174.49 8.92001 194.6 23.95C214.63 38.93 224.68 59.63 227.61 83.92C230.16 105.06 228.62 125.84 219.11 145.42C209.83 164.54 194.77 177.7 175.93 186.74C172.22 188.52 172.38 189.72 174.25 192.8C194.94 226.99 215.49 261.27 236.07 295.53C236.49 296.23 236.88 296.96 237.81 298.59ZM66.87 102.66C66.87 115.65 66.87 128.63 66.87 141.62C66.87 143.58 66.39 145.73 69.63 145.66C87.43 145.28 105.31 146.89 123.02 144.75C155.98 140.76 172.62 106.96 155.79 78.95C152.36 73.24 147.67 68.93 141.76 65.83C134.07 61.79 125.81 59.98 117.25 59.81C101.94 59.5 86.63 59.65 71.32 59.29C67.29 59.19 66.74 60.73 66.79 64.21C66.97 77.03 66.86 89.85 66.86 102.67L66.87 102.66Z" fill="#DC2430"/>
<path d="M1306.06 298.59C1296.23 298.59 1286.39 298.38 1276.57 298.69C1272.83 298.81 1271.47 297.42 1270.31 294.09C1263.96 275.86 1257.26 257.75 1250.89 239.53C1249.68 236.07 1248.13 234.69 1244.25 234.72C1212.59 234.9 1180.93 234.88 1149.27 234.73C1145.83 234.71 1144.34 235.74 1143.24 238.96C1136.9 257.54 1130.28 276.03 1123.92 294.61C1122.91 297.55 1121.65 298.71 1118.35 298.68C1098.86 298.5 1079.36 298.48 1059.87 298.68C1055.62 298.72 1055.26 297.78 1056.69 293.98C1076.86 240.41 1096.88 186.78 1116.94 133.16C1132.92 90.45 1148.97 47.78 1164.75 5.00001C1166.26 0.920008 1168.23 -0.049992 1172.24 8.02928e-06C1189.9 0.210008 1207.56 0.170008 1225.23 8.02928e-06C1228.37 -0.029992 1229.83 0.840008 1230.96 3.88001C1263.56 91.35 1296.26 178.78 1328.96 266.22C1332.52 275.73 1336.01 285.26 1339.73 294.7C1340.93 297.75 1340.57 298.71 1337.07 298.64C1326.74 298.45 1316.41 298.57 1306.08 298.57L1306.06 298.59ZM1197.53 89.02C1196.81 89.68 1196.62 89.77 1196.57 89.91C1186.55 118.12 1176.61 146.35 1166.46 174.51C1165.1 178.28 1166.75 178.27 1169.53 178.26C1187.85 178.2 1206.17 178.13 1224.49 178.31C1228.56 178.35 1228.36 177 1227.23 173.95C1224.28 166 1221.62 157.95 1218.82 149.94C1211.75 129.7 1204.66 109.47 1197.51 89.03L1197.53 89.02Z" fill="#DC2430"/>
<path d="M1627.45 298.59C1618.24 298.59 1609.97 298.59 1601.69 298.59C1586.36 298.59 1571.03 298.5 1555.7 298.67C1552.61 298.7 1551.03 297.7 1549.53 294.98C1532.4 264.12 1515.11 233.34 1497.86 202.55C1497.4 201.73 1496.87 200.94 1495.99 199.5C1490.74 208.8 1485.76 217.6 1480.8 226.4C1468.13 248.88 1455.41 271.33 1442.88 293.89C1440.97 297.33 1438.89 298.74 1434.77 298.7C1412.14 298.46 1389.51 298.58 1365.97 298.58C1369.95 291.94 1373.54 285.87 1377.22 279.84C1403.15 237.34 1429.04 194.81 1455.14 152.42C1457.44 148.68 1457.11 146.23 1454.95 142.69C1427.11 96.87 1399.43 50.95 1371.73 5.04001C1371.24 4.23001 1370.85 3.35001 1370.12 1.94001C1377.49 1.94001 1384.27 1.94001 1391.05 1.94001C1407.38 1.94001 1423.71 2.14001 1440.04 1.81001C1444.56 1.72001 1446.78 3.23001 1448.86 7.06001C1464.02 35.01 1479.41 62.84 1494.75 90.69C1495.52 92.09 1495.94 93.77 1497.79 94.92C1505.7 80.8 1513.58 66.74 1521.45 52.67C1530.31 36.83 1539.18 21 1547.99 5.14001C1549.11 3.12001 1550.19 1.85001 1552.89 1.86001C1575.88 1.99001 1598.88 1.93001 1621.87 1.95001C1622.33 1.95001 1622.78 2.13001 1623.81 2.35001C1620.91 7.07001 1618.16 11.55 1615.41 16.03C1589.64 58.04 1563.91 100.08 1538.01 142.02C1535.77 145.65 1535.86 148.22 1538.05 151.8C1566.94 198.93 1595.68 246.15 1624.45 293.35C1625.31 294.76 1626.11 296.21 1627.47 298.56L1627.45 298.59Z" fill="#DC2430"/>
<path d="M454.67 241.01C446.04 257.4 437.39 272.58 430 288.36C426.13 296.63 421.31 299.02 412.27 298.86C376.3 298.22 340.3 298.53 304.32 298.69C300.2 298.71 299.07 297.65 299.08 293.48C299.2 198.02 299.2 102.56 299.08 7.10001C299.08 2.99001 300.06 1.86001 304.23 1.87001C368.2 2.01001 432.18 1.99001 496.15 1.89001C499.72 1.89001 501 2.48001 500.93 6.43001C500.67 22.59 500.67 38.75 500.93 54.91C500.99 58.85 499.78 59.52 496.18 59.51C454.53 59.39 412.88 59.51 371.23 59.32C366.55 59.3 364.97 60.26 365.07 65.23C365.4 81.72 365.35 98.22 365.09 114.71C365.02 119.15 365.99 120.6 370.74 120.57C406.72 120.35 442.71 120.54 478.7 120.34C483.28 120.31 484.52 121.48 484.42 126.07C484.11 141.22 484.33 156.39 484.29 171.55C484.27 179.04 485.07 178.02 478.05 178.03C442.23 178.06 406.41 178.13 370.59 177.94C366.19 177.92 365 178.98 365.07 183.43C365.35 201.09 365.3 218.75 365.09 236.41C365.05 240.19 366.1 241.14 369.83 241.12C396.15 240.95 422.47 241.03 448.8 241.03H454.66L454.67 241.01Z" fill="#DC2430"/>
<path d="M729.77 1.95001C722.57 15.64 715.78 28.58 708.96 41.49C665.03 124.66 621.04 207.79 577.31 291.07C574.38 296.65 571.42 298.9 564.95 298.77C542.3 298.31 519.63 298.55 496.96 298.64C493.44 298.65 492.11 298.5 494.24 294.49C545.1 198.41 595.85 102.28 646.52 6.11001C648.12 3.08001 649.76 1.83001 653.32 1.86001C678.47 2.04001 703.62 1.95001 729.77 1.95001Z" fill="#0F5299"/>
</svg>
