<svg width="487" height="487" viewBox="0 0 487 487" fill="none" xmlns="http://www.w3.org/2000/svg">
<path d="M486.081 243.487C486.471 376.997 378.051 486.757 242.951 486.657C107.911 486.557 -1.28851 376.417 0.0114879 240.637C1.27149 108.817 109.202 -1.56325 246.242 0.0167549C379.012 1.54675 486.621 110.247 486.081 243.487ZM37.1215 242.867C36.7515 356.927 128.531 449.557 243.451 449.587C355.631 449.617 451.111 358.377 449.211 238.827C447.491 129.947 356.901 34.3368 238.111 36.9868C128.531 39.4268 36.9315 129.307 37.1215 242.867Z" fill="#9CACB5"/>
<path d="M344.732 142.407C348.692 157.737 352.412 172.347 358.882 186.157C371.632 213.337 394.081 228.337 421.871 236.667C427.591 238.387 433.481 239.517 439.251 241.087C440.551 241.437 442.822 241.047 442.882 242.907C442.952 244.897 440.692 244.517 439.382 244.797C429.781 246.877 420.361 249.517 411.132 252.917C377.762 265.207 358.911 289.997 350.181 323.517C348.471 330.087 346.962 336.717 345.042 344.657C339.292 318.077 332.681 293.047 313.161 274.087C293.811 255.287 269.081 248.397 243.151 242.677C302.091 234.607 336.602 201.987 344.732 142.417V142.407Z" fill="#BB2728"/>
<path d="M241.121 245.437C242.811 252.347 244.311 259.307 246.221 266.157C252.691 289.317 263.252 309.867 283.702 323.997C298.612 334.307 315.461 339.807 332.911 343.797C333.881 344.017 334.871 344.197 335.841 344.427C336.961 344.697 338.342 344.837 338.292 346.377C338.242 348.137 336.641 347.657 335.621 347.867C325.521 350.007 315.611 352.777 305.961 356.467C276.161 367.877 257.361 389.387 248.201 419.617C245.941 427.077 244.191 434.707 242.251 442.267C241.961 443.387 242.021 444.617 240.641 445.447C238.381 436.907 236.321 428.357 233.841 419.937C222.711 382.137 196.542 360.507 159.242 350.987C154.582 349.797 149.862 348.837 145.132 347.917C143.762 347.657 142.211 347.647 142.221 345.967C142.231 344.197 143.981 344.927 144.971 344.707C161.261 341.127 177.151 336.487 191.761 328.077C215.051 314.687 227.632 293.617 234.962 268.697C237.212 261.037 239.082 253.287 241.102 245.437H241.121Z" fill="#234282"/>
<path d="M140.431 140.057C197.941 131.187 231.831 99.0468 240.051 40.8368C242.811 44.5268 243.331 48.0768 244.171 51.4968C248.631 69.7468 254.652 87.2868 266.732 102.147C280.202 118.717 298.271 127.877 318.211 133.887C325.831 136.187 333.601 137.967 341.331 140.857C335.591 142.257 329.821 143.547 324.121 145.077C306.911 149.687 290.601 156.277 276.911 168.037C261.461 181.307 252.701 198.707 247.191 217.937C245.151 225.047 243.401 232.237 240.861 239.447C234.571 214.687 227.962 190.337 208.962 171.827C190.002 153.347 165.781 146.367 140.431 140.067V140.057Z" fill="#EFC823"/>
<path d="M72.4315 262.137C64.3615 262.137 58.8715 254.677 61.1115 247.637C61.8215 245.407 63.4715 246.307 64.7815 246.207C66.2315 246.087 67.9415 245.877 67.9815 248.197C68.0015 249.527 68.0115 250.867 68.1915 252.187C68.5015 254.477 69.8615 255.817 72.2115 255.757C74.6215 255.697 75.7215 254.087 76.0115 251.887C76.4015 248.937 74.9915 246.797 72.8215 244.977C69.8915 242.517 66.7815 240.207 64.1915 237.427C60.5215 233.477 60.1215 226.117 62.9215 222.037C65.3815 218.437 71.3015 217.017 76.0515 218.867C79.9315 220.387 82.9415 226.377 82.1715 230.437C81.8315 232.247 80.7115 232.057 79.6615 231.917C78.2115 231.727 76.1315 232.987 75.5415 230.437C75.3215 229.467 75.3115 228.447 75.1015 227.477C74.6315 225.267 73.1215 224.547 71.0215 224.817C68.6815 225.117 68.1315 226.707 68.1915 228.767C68.2615 231.197 69.7815 232.637 71.5015 234.057C74.4515 236.477 77.6315 238.747 80.1315 241.587C84.0715 246.057 83.9115 251.427 81.6715 256.597C79.9015 260.687 76.2915 262.297 72.4315 262.147V262.137Z" fill="#2E2C2D"/>
<path d="M180.021 240.847C180.168 244.887 177.898 246.913 173.211 246.927C167.771 246.927 167.041 247.887 168.051 253.257C168.361 254.917 168.981 256.097 170.821 256.167C172.431 256.227 173.521 255.197 173.501 253.807C173.431 249.807 176.171 249.937 178.541 250.557C181.861 251.437 179.921 254.077 179.531 255.857C178.501 260.487 175.281 262.167 170.681 261.997C166.051 261.827 162.991 259.687 162.171 255.197C161.061 249.127 161.211 242.947 161.871 236.847C162.491 231.087 165.541 228.687 171.191 228.787C176.651 228.877 179.241 231.217 179.991 236.867C180.161 238.167 180.021 239.517 180.021 240.847ZM170.501 241.057C172.321 241.047 174.151 241.427 173.971 238.727C173.821 236.597 173.581 234.617 170.861 234.567C168.351 234.517 168.101 236.277 167.981 238.267C167.851 240.357 168.401 241.477 170.511 241.047L170.501 241.057Z" fill="#2E2C2D"/>
<path d="M124.721 244.887C124.721 242.557 124.561 240.217 124.751 237.907C125.271 231.557 128.261 228.737 134.201 228.807C139.971 228.867 142.571 231.517 143.121 237.867C143.151 238.197 143.151 238.527 143.161 238.867C143.511 246.897 143.511 246.847 135.621 246.977C134.111 247.007 131.871 245.917 131.221 247.927C130.521 250.087 130.701 252.567 131.521 254.797C131.891 255.787 132.912 256.147 133.992 256.147C135.682 256.147 136.511 254.987 136.561 253.637C136.701 249.737 139.471 249.927 141.751 250.617C144.531 251.467 143.021 253.987 142.641 255.687C141.631 260.277 138.562 262.157 133.882 262.017C129.252 261.877 126.131 259.837 125.251 255.337C124.591 251.937 124.671 248.387 124.421 244.907C124.511 244.907 124.611 244.907 124.701 244.897L124.721 244.887ZM133.941 241.057C135.821 241.227 137.331 241.077 137.051 238.557C136.821 236.417 136.431 234.487 133.691 234.607C131.111 234.717 131.181 236.687 130.971 238.547C130.701 241.017 132.101 241.287 133.941 241.057Z" fill="#2E2C2D"/>
<path d="M100.991 246.117C100.991 242.587 100.881 240.247 101.011 237.917C101.351 231.917 104.381 228.867 109.941 228.797C116.151 228.717 118.801 231.307 119.251 237.887C119.271 238.217 119.291 238.547 119.311 238.887C119.621 246.877 119.621 246.827 111.821 246.957C110.301 246.987 107.991 245.947 107.381 247.877C106.711 250.007 106.751 252.497 107.761 254.727C108.211 255.737 109.101 256.157 110.191 256.137C111.791 256.107 112.881 255.117 112.851 253.707C112.741 249.577 115.611 249.987 117.901 250.587C120.841 251.367 119.221 254.037 118.901 255.627C118.171 259.377 115.841 261.787 111.691 261.967C107.391 262.147 103.751 261.317 101.941 256.787C100.401 252.917 101.211 248.877 100.991 246.127V246.117ZM109.711 241.067C111.111 240.837 113.271 241.877 113.141 238.987C113.051 236.957 113.191 234.777 110.341 234.607C107.941 234.467 107.281 236.007 107.121 238.097C106.971 240.027 107.211 241.457 109.701 241.067H109.711Z" fill="#2E2C2D"/>
<path d="M209.121 228.787C213.231 228.657 216.281 230.127 217.371 234.397C217.781 235.997 219.241 238.237 216.861 238.957C215.091 239.497 212.031 240.607 211.481 236.787C211.261 235.277 210.251 234.467 208.661 234.647C207.801 234.737 207.061 235.117 206.691 235.967C206.061 237.417 206.711 238.677 207.691 239.557C210.041 241.667 212.661 243.487 214.961 245.647C218.541 249.017 219.001 253.167 217.171 257.557C215.351 261.927 211.451 262.207 207.501 261.907C203.271 261.587 200.821 258.997 200.221 254.957C200.021 253.607 198.521 250.917 201.841 250.837C203.701 250.797 206.481 249.677 206.271 253.477C206.191 254.967 207.101 256.007 208.661 256.177C209.691 256.287 210.631 255.957 211.151 254.927C211.821 253.587 211.631 252.187 210.691 251.197C209.331 249.757 207.701 248.567 206.171 247.287C203.991 245.467 201.901 243.627 200.851 240.837C198.231 233.897 201.691 228.797 209.111 228.797L209.121 228.787Z" fill="#2E2C2D"/>
<path d="M149.242 240.057C149.242 234.057 149.331 228.057 149.191 222.067C149.131 219.607 150.091 218.917 152.411 218.947C154.581 218.977 155.821 219.327 155.801 221.927C155.711 234.087 155.682 246.257 155.822 258.417C155.852 261.347 154.181 261.007 152.311 261.137C149.961 261.297 149.111 260.537 149.191 258.057C149.371 252.067 149.252 246.067 149.242 240.067V240.057Z" fill="#2E2C2D"/>
<path d="M94.3115 221.797C95.0515 225.027 93.5915 228.797 97.0915 231.057C97.5715 231.367 97.4215 233.437 96.9215 234.337C93.7115 240.167 93.6415 250.717 96.6715 255.877C97.6415 257.537 98.1115 260.307 96.2915 261.237C93.9315 262.447 91.0515 261.957 89.1915 259.467C88.1415 258.067 88.2215 256.347 88.2215 254.687C88.2415 249.387 88.2915 244.077 88.1815 238.777C88.1515 237.337 88.3215 236.127 86.7615 234.607C83.5215 231.447 87.9815 229.077 89.0615 226.477C89.8115 224.657 91.7715 222.867 94.3015 221.807L94.3115 221.797Z" fill="#2E2C2D"/>
<path d="M198.111 228.597C198.111 231.287 198.091 233.257 198.111 235.237C198.131 236.687 197.981 237.767 196.051 237.867C192.801 238.037 192.081 240.397 192.061 243.127C192.031 248.117 191.911 253.117 192.091 258.107C192.181 260.607 191.221 261.157 188.931 261.157C186.631 261.157 185.681 260.587 185.721 258.097C185.851 249.607 185.871 241.117 185.721 232.637C185.641 228.017 190.301 229.267 190.641 229.947C192.761 234.197 193.952 230.197 195.462 229.707C196.062 229.517 196.631 229.217 198.091 228.597H198.111Z" fill="#2E2C2D"/>
<path d="M133.691 234.607C136.441 234.487 136.821 236.417 137.051 238.557C137.331 241.077 135.821 241.227 133.941 241.057C132.101 241.287 130.701 241.017 130.971 238.547" fill="white"/>
</svg>
